<svg width="19" height="20" viewBox="0 0 19 20" fill="none" xmlns="http://www.w3.org/2000/svg">
<rect y="19.6107" width="3.46071" height="19" rx="1.73036" transform="rotate(-90 0 19.6107)" fill="#1782FF"/>
<path d="M0 12.9608C0 12.1738 0.637994 11.5358 1.425 11.5358V11.5358C2.21201 11.5358 2.85 12.1738 2.85 12.9608V18.1858C2.85 18.9728 2.21201 19.6108 1.425 19.6108V19.6108C0.637994 19.6108 0 18.9728 0 18.1858V12.9608Z" fill="#1782FF"/>
<rect x="16.15" y="11.5358" width="2.85" height="8.075" rx="1.425" fill="#1782FF"/>
<rect x="8.61804" width="2.30714" height="13.8429" rx="1.15357" fill="#1782FF"/>
<rect width="2.30714" height="8.30571" rx="1.15357" transform="matrix(0.635707 -0.77193 0.635707 0.77193 4.00366 7.54883)" fill="#1782FF"/>
<rect width="2.30714" height="8.30571" rx="1.15357" transform="matrix(0.635707 0.77193 -0.635707 0.77193 13.8981 5.76782)" fill="#1782FF"/>
</svg>
