<svg width="30" height="30" viewBox="0 0 30 30" fill="none" xmlns="http://www.w3.org/2000/svg">
<rect x="7" y="5" width="2" height="10" rx="1" fill="#6F6F6F"/>
<rect x="7" y="17" width="2" height="8" rx="1" fill="#6F6F6F"/>
<rect x="6" y="14" width="4" height="1" rx="0.5" fill="#6F6F6F"/>
<rect x="22" y="5" width="2" height="7" rx="1" fill="#6F6F6F"/>
<rect x="22" y="14" width="2" height="11" rx="1" fill="#6F6F6F"/>
<rect x="21" y="14" width="4" height="1" rx="0.5" fill="#6F6F6F"/>
<rect x="17" y="5" width="2" height="3" rx="1" fill="#6F6F6F"/>
<rect x="17" y="10" width="2" height="15" rx="1" fill="#6F6F6F"/>
<rect x="16" y="7" width="4" height="1" rx="0.5" fill="#6F6F6F"/>
<rect x="12" y="21" width="2" height="4" rx="1" fill="#6F6F6F"/>
<rect x="12" y="5" width="2" height="14" rx="1" fill="#6F6F6F"/>
<rect x="11" y="21" width="4" height="1" rx="0.5" fill="#6F6F6F"/>
</svg>
