<svg width="25" height="25" viewBox="0 0 25 25" fill="none" xmlns="http://www.w3.org/2000/svg">
<rect width="25" height="25" rx="5" fill="#7209B7"/>
<path d="M19.1389 15.7249C19.1389 16.5056 18.9127 17.2395 18.4603 17.9265C18.0259 18.6135 17.3744 19.1913 16.5057 19.6597C15.6939 20.1068 14.7337 20.3832 13.6252 20.4889C13.535 20.4975 13.4653 20.5727 13.4653 20.6632V21.5177C13.4653 22.005 13.0703 22.4 12.5831 22.4C12.0958 22.4 11.7008 22.005 11.7008 21.5177V20.6628C11.7008 20.5724 11.6314 20.4973 11.5415 20.4887C9.91353 20.3331 8.59122 19.8772 7.57453 19.121C6.88617 18.609 6.76209 18.192 6.75822 17.6044C6.75401 16.964 7.24383 16.4149 7.87348 16.2975C8.64472 16.1537 9.34048 16.7624 9.83219 17.3737C9.88155 17.4351 9.93434 17.4944 9.99057 17.5518C10.3468 17.9011 10.8408 18.1379 11.4724 18.2621C11.5922 18.2857 11.7008 18.1917 11.7008 18.0696V13.1486C10.4883 12.8831 9.50193 12.6177 8.74183 12.3522C7.98173 12.0712 7.33021 11.634 6.78728 11.0406C6.26245 10.4473 6.00004 9.63535 6.00004 8.60481C6.00004 7.30883 6.52487 6.23925 7.57453 5.39608C8.59123 4.56427 9.91354 4.06938 11.5415 3.91142C11.6314 3.90269 11.7008 3.82755 11.7008 3.73716V2.88224C11.7008 2.39499 12.0958 1.99998 12.5831 1.99998C13.0703 1.99998 13.4653 2.39499 13.4653 2.88224V3.73655C13.4653 3.82719 13.5351 3.90243 13.6254 3.91082C15.1436 4.05187 16.3661 4.4845 17.293 5.20871C17.852 5.62849 18.1119 5.89368 18.2558 6.28634C18.5005 6.95451 17.9558 7.63461 17.2683 7.81811L17.0603 7.87363C16.311 8.07361 15.5377 7.50981 14.9855 6.96531C14.6551 6.62591 14.2289 6.38093 13.7069 6.2304C13.5839 6.19495 13.4653 6.2903 13.4653 6.41822V11.228C14.6779 11.4778 15.6642 11.7433 16.4243 12.0243C17.1844 12.2898 17.8268 12.7192 18.3517 13.3125C18.8765 13.8902 19.1389 14.6944 19.1389 15.7249ZM9.14902 8.46428C9.14902 9.10446 9.3662 9.60412 9.80054 9.96325C10.2054 10.2846 10.7552 10.5497 11.4499 10.7585C11.5758 10.7964 11.7008 10.7006 11.7008 10.5691V6.31979C11.7008 6.20144 11.5985 6.10855 11.4814 6.12567C10.8044 6.22467 10.2531 6.45771 9.82769 6.82478C9.37525 7.23075 9.14902 7.77725 9.14902 8.46428ZM13.4653 18.0719C13.4653 18.1932 13.5725 18.2869 13.6918 18.2649C14.3809 18.1375 14.9298 17.8764 15.3384 17.4815C15.7909 17.0287 16.0171 16.49 16.0171 15.8654C16.0171 15.2409 15.7909 14.7568 15.3384 14.4133C14.9498 14.092 14.4091 13.8269 13.7162 13.6181C13.5903 13.5801 13.4653 13.6759 13.4653 13.8075V18.0719Z" fill="white"/>
</svg>
